<?xml version="1.0" standalone="no"?>
<!DOCTYPE svg PUBLIC "-//W3C//DTD SVG 20010904//EN"
 "http://www.w3.org/TR/2001/REC-SVG-20010904/DTD/svg10.dtd">
<svg version="1.0" xmlns="http://www.w3.org/2000/svg"
 width="500.000000pt" height="500.000000pt" viewBox="0 0 500.000000 500.000000"
 preserveAspectRatio="xMidYMid meet">

<g transform="translate(0.000000,500.000000) scale(0.100000,-0.100000)"
fill="#000000" stroke="none">
<path d="M0 2500 l0 -2500 2500 0 2500 0 0 2500 0 2500 -2500 0 -2500 0 0
-2500z m4770 0 l0 -2270 -2270 0 -2270 0 0 2270 0 2270 2270 0 2270 0 0 -2270z"/>
<path d="M2340 4494 c-113 -14 -234 -39 -319 -65 -491 -157 -857 -565 -968
-1082 -28 -129 -25 -428 6 -567 110 -502 457 -895 932 -1058 63 -22 160 -48
215 -58 131 -23 364 -24 494 -1 301 54 592 212 800 434 189 202 321 470 365
741 21 128 16 405 -10 522 -61 278 -190 515 -390 715 -210 211 -451 340 -738
396 -98 19 -314 32 -387 23z m389 -104 c417 -85 779 -375 953 -765 279 -624
61 -1340 -517 -1701 -42 -25 -78 -44 -81 -42 -2 3 -9 142 -14 309 -9 290 -10
305 -30 318 -19 12 -20 24 -20 160 l0 147 45 12 c104 28 180 107 218 226 19
61 22 92 21 216 -2 169 -28 290 -91 419 -42 87 -128 180 -189 207 -63 27 -159
24 -219 -8 -159 -83 -275 -347 -275 -628 0 -258 82 -390 278 -446 9 -2 12 -40
12 -145 0 -136 -1 -143 -24 -164 l-23 -22 -7 -339 c-4 -186 -9 -351 -12 -366
-5 -24 -11 -27 -77 -39 -93 -17 -351 -17 -443 0 l-72 12 -6 192 c-18 570 -17
548 -37 565 -17 15 -19 32 -19 159 l0 142 38 7 c92 17 173 79 220 168 l27 51
3 428 c3 447 2 457 -39 457 -35 0 -39 -32 -39 -325 l0 -286 -72 3 -73 3 -3
289 c-1 193 -6 294 -13 303 -15 17 -34 17 -53 -3 -14 -13 -16 -55 -16 -305 l0
-290 -82 3 -83 3 -2 288 c-2 289 -5 317 -38 317 -33 0 -36 -28 -38 -317 l-2
-288 -75 0 -75 0 -3 297 -2 298 -26 6 c-15 4 -30 2 -37 -5 -18 -18 -17 -820 1
-878 31 -104 123 -191 227 -214 l55 -12 0 -142 c0 -139 -1 -143 -24 -158 l-24
-16 -7 -305 c-5 -198 -11 -306 -18 -306 -36 0 -222 138 -325 242 -358 361
-484 889 -327 1365 108 324 342 606 640 768 141 77 328 136 490 155 107 13
311 3 424 -20z m293 -588 c126 -87 220 -359 205 -596 -10 -170 -71 -269 -185
-302 -79 -23 -232 -16 -289 14 -51 27 -97 82 -119 141 -22 62 -30 251 -14 349
32 199 134 376 242 422 42 18 111 6 160 -28z m-712 -643 c0 -100 -16 -146 -70
-200 -61 -61 -103 -72 -267 -67 -124 3 -132 4 -179 33 -69 43 -104 113 -111
224 l-6 81 317 0 316 0 0 -71z m-290 -494 c0 -138 -1 -145 -20 -145 -19 0 -20
7 -20 145 0 138 1 145 20 145 19 0 20 -7 20 -145z m920 0 c0 -138 -1 -145 -20
-145 -19 0 -20 7 -20 145 0 138 1 145 20 145 19 0 20 -7 20 -145z m-876 -327
c3 -57 8 -205 11 -330 5 -184 4 -228 -7 -228 -7 0 -42 11 -78 24 l-65 24 -3
73 c-2 41 -1 179 3 307 l7 232 63 0 63 0 6 -102z m920 50 c3 -29 8 -166 11
-304 l6 -251 -75 -27 c-41 -14 -77 -26 -82 -26 -7 0 4 639 12 652 3 4 32 8 64
8 l59 0 5 -52z"/>
<path d="M1710 1135 c0 -25 5 -45 10 -45 6 0 10 9 10 20 0 30 42 52 92 48 l43
-3 3 -152 c3 -161 -3 -183 -49 -183 -10 0 -19 -4 -19 -10 0 -6 38 -10 95 -10
57 0 95 4 95 10 0 6 -9 10 -19 10 -46 0 -52 22 -49 183 l3 152 43 3 c50 4 92
-18 92 -48 0 -11 5 -20 10 -20 6 0 10 20 10 45 l0 45 -185 0 -185 0 0 -45z"/>
<path d="M2823 1073 c-37 -39 -39 -43 -18 -43 12 0 15 -17 15 -93 0 -113 12
-137 69 -137 36 0 61 14 61 33 0 5 -7 4 -14 -3 -8 -6 -25 -10 -38 -8 -22 3
-23 7 -26 106 l-3 102 31 0 c16 0 30 5 30 10 0 6 -13 10 -30 10 -27 0 -30 3
-30 30 0 37 -7 36 -47 -7z"/>
<path d="M2206 1044 c-19 -18 -21 -40 -4 -50 6 -4 22 6 37 25 31 37 54 40 75
9 29 -41 20 -56 -53 -92 -69 -35 -81 -48 -81 -91 0 -48 84 -62 124 -22 23 23
23 23 32 3 7 -15 18 -21 43 -21 19 0 36 6 39 13 2 7 -2 10 -11 6 -25 -9 -37
29 -37 119 0 69 -3 87 -18 100 -25 23 -124 23 -146 1z m124 -129 c0 -69 -59
-116 -92 -75 -22 27 -11 52 35 80 43 27 57 25 57 -5z"/>
<path d="M2546 1045 c-23 -23 -30 -59 -16 -85 6 -11 33 -35 61 -51 54 -34 66
-69 30 -89 -20 -10 -71 4 -71 20 0 3 -7 15 -15 26 -13 18 -14 16 -15 -25 0
-36 2 -42 14 -32 10 8 16 9 21 1 3 -5 25 -10 49 -10 59 0 83 29 78 92 -1 10
-29 36 -62 58 -63 43 -76 71 -41 90 26 13 48 4 66 -29 l14 -26 1 35 c0 35 0
35 -49 38 -35 2 -53 -2 -65 -13z"/>
<path d="M3108 1044 c-38 -20 -58 -63 -58 -125 0 -45 4 -55 34 -85 29 -29 41
-34 81 -34 44 0 105 24 105 42 0 12 -13 9 -34 -7 -54 -41 -125 1 -133 78 l-6
47 93 0 92 0 -7 28 c-12 48 -43 72 -94 72 -25 -1 -58 -7 -73 -16z m106 -26
c22 -31 12 -38 -50 -38 -58 0 -66 10 -37 42 22 25 68 23 87 -4z"/>
</g>
</svg>
